<svg xmlns="http://www.w3.org/2000/svg" viewBox="0 0 32 24">
	<path fill="#AAAAAA" d="M0.3,10.8V0h4.8c2,0,3.1,1.3,3.1,2.7c0,1.3-0.8,2.3-1.9,2.5c1.2,0.2,2.1,1.3,2.1,2.6c0,1.6-1.1,2.9-3.1,2.9H0.3z M5.9,3.1 C5.9,2.5,5.4,2,4.6,2h-2v2.3h2C5.4,4.3,5.9,3.8,5.9,3.1z M6.1,7.5c0-0.7-0.5-1.2-1.4-1.2H2.6v2.5h2.1C5.6,8.7,6.1,8.3,6.1,7.5z"/>
	<path fill="#AAAAAA" d="M9.1,7.6V3h2.1v4.6c0,0.9,0.6,1.6,1.7,1.6c1.1,0,1.7-0.7,1.7-1.6V3h2.1v4.7c0,2-1.2,3.3-3.7,3.3S9.1,9.6,9.1,7.6z"/>
	<path fill="#AAAAAA" d="M17.2,10.8V9.2l3.5-4.5h-3.5V3h6.3v1.5L19.9,9h3.6v1.8L17.2,10.8L17.2,10.8z"/>
	<path fill="#AAAAAA" d="M24.2,10.8V9.2l3.5-4.5h-3.5V3h6.3v1.5L26.9,9h3.6v1.8L24.2,10.8L24.2,10.8z"/>
	<path fill="#AAAAAA" d="M0.3,23.8V13h7.5v2H2.6v2.3h3.9v2H2.6v4.5H0.3z"/>
	<path fill="#AAAAAA" d="M7.1,19.9c0-2.3,1.7-4.1,4-4.1c2.3,0,3.9,1.7,3.9,4.3v0.5H9.2c0.1,0.9,0.9,1.7,2.2,1.7c0.7,0,1.6-0.3,2.1-0.8l0.9,1.4 c-0.8,0.7-2,1.1-3.2,1.1C8.9,24,7.1,22.4,7.1,19.9z M11.1,17.5c-1.3,0-1.8,0.9-1.9,1.7h3.8C13,18.4,12.5,17.5,11.1,17.5z"/>
	<path fill="#AAAAAA" d="M15.6,19.9c0-2.3,1.7-4.1,4-4.1c2.3,0,3.9,1.7,3.9,4.3v0.5h-5.8c0.1,0.9,0.9,1.7,2.2,1.7c0.7,0,1.6-0.3,2.1-0.8l0.9,1.4 c-0.8,0.7-2,1.1-3.2,1.1C17.4,24,15.6,22.4,15.6,19.9z M19.6,17.5c-1.3,0-1.8,0.9-1.9,1.7h3.8C21.5,18.4,21,17.5,19.6,17.5z"/>
	<path fill="#AAAAAA" d="M24.3,23.8V16h3.1c2.5,0,4.2,1.5,4.2,3.9c0,2.4-1.8,3.9-4.2,3.9H24.3z M29.7,19.9c0-1.2-0.7-2.2-2.2-2.2h-1.3v4.4h1.3 C28.9,22.1,29.7,21.1,29.7,19.9z"/>
</svg>
