<svg xmlns="http://www.w3.org/2000/svg" viewBox="0 0 84 24">
	<path fill="#AAAAAA" d="M13.1,8.7c-1.9,0-3.3,1.3-3.3,3.4c0,2.1,1.4,3.3,3.3,3.3s3.3-1.2,3.3-3.3C16.4,9.9,15,8.7,13.1,8.7z M13.1,14 c-1.1,0-1.8-0.7-1.8-2S12,10,13.1,10s1.8,0.8,1.8,2.1S14.2,14,13.1,14z"/>
	<path fill="#AAAAAA" d="M4.1,12.4c-0.4,0.4-1.1,0.5-1.7,0.5H1.6v2.5H0V8.7h2.4c0.7,0,1.3,0.1,1.7,0.5c0.4,0.4,0.7,0.9,0.7,1.6 C4.8,11.5,4.6,12,4.1,12.4z M2.9,10.1C2.7,9.9,2.5,9.9,2.2,9.9H1.6v1.8h0.6c0.3,0,0.6,0,0.8-0.2c0.2-0.1,0.3-0.4,0.3-0.7 C3.2,10.4,3.1,10.2,2.9,10.1z"/>
	<path fill="#AAAAAA" d="M25.5,12.4c-0.4,0.4-1.1,0.5-1.7,0.5H23v2.5h-1.6V8.7h2.4c0.7,0,1.3,0.1,1.7,0.5c0.4,0.4,0.7,0.9,0.7,1.6 C26.2,11.5,26,12,25.5,12.4z M24.3,10.1c-0.2-0.1-0.4-0.2-0.8-0.2h-0.6v1.8h0.6c0.3,0,0.6,0,0.8-0.2c0.2-0.1,0.3-0.4,0.3-0.7 C24.6,10.4,24.5,10.2,24.3,10.1z"/>
	<path fill="#AAAAAA" d="M35.1,14.8c-0.5,0.4-1.1,0.5-1.8,0.5c-0.9,0-1.8-0.5-2.3-1l0.8-1.1c0.5,0.5,1.2,0.8,1.7,0.8c0.5,0,0.9-0.2,0.9-0.7 c0-0.4-0.5-0.6-0.8-0.7c-0.3-0.1-0.8-0.3-1-0.4c-0.2-0.1-0.5-0.2-0.8-0.5c-0.3-0.3-0.5-0.6-0.5-1.3c0-0.6,0.3-1.1,0.7-1.4 c0.4-0.3,1-0.5,1.7-0.5c0.8,0,1.6,0.4,2.1,0.8l-0.7,1.1c-0.4-0.4-1-0.7-1.5-0.7c-0.5,0-0.9,0.2-0.9,0.6c0,0.4,0.4,0.6,0.7,0.7 c0.3,0.1,0.8,0.3,1,0.4c0.2,0.1,0.6,0.2,0.9,0.5c0.3,0.3,0.5,0.7,0.5,1.3C35.9,13.9,35.6,14.4,35.1,14.8z"/>
	<path fill="#AAAAAA" d="M46.3,12.5c0,0.9-0.2,1.6-0.6,2.1c-0.5,0.5-1.2,0.8-2.1,0.8c-1,0-1.7-0.3-2.2-0.8c-0.5-0.5-0.6-1.2-0.6-2.1V8.6h1.6v3.9 c0,0.5,0,0.8,0.3,1.1c0.2,0.3,0.5,0.4,1,0.4c0.4,0,0.7-0.2,1-0.4c0.2-0.3,0.3-0.6,0.3-1.1V8.6h1.6V12.5z"/>
	<path fill="#AAAAAA" d="M57.5,14.3c-0.3,0.3-1.1,1.1-2.9,1.1c-1.8,0-3.4-1.2-3.4-3.4c0-2.2,1.6-3.4,3.4-3.4c1.7,0,2.5,0.9,2.7,1.1l-1,0.9 c-0.3-0.3-0.8-0.7-1.7-0.7c-1.1,0-1.9,0.8-1.9,2.1c0,1.3,0.8,2.1,1.9,2.1s1.4-0.4,1.4-0.4v-1h-1.4v-1.2h2.9V14.3z"/>
	<path fill="#AAAAAA" d="M69,15.4h-1.7L66.8,14h-2.4l-0.5,1.3h-1.6l2.5-6.7h1.6L69,15.4z M66.4,12.8l-0.8-2.4l-0.8,2.4H66.4z"/>
	<path fill="#AAAAAA" d="M79.1,15.4h-1.8l-1.4-2.6h-0.5v2.6h-1.6V8.7h2.4c0.7,0,1.3,0.2,1.8,0.5c0.4,0.3,0.7,0.9,0.7,1.5c0,1.3-0.8,1.8-1.3,1.9 L79.1,15.4z M76.8,10.1c-0.2-0.1-0.4-0.2-0.8-0.2h-0.6v1.7H76c0.4,0,0.6,0,0.8-0.2c0.2-0.1,0.3-0.3,0.3-0.7 C77.1,10.4,77,10.2,76.8,10.1z"/>
	<circle fill="#AAAAAA" cx="82.8" cy="14.2" r="1.2"/>
</svg>
