<svg xmlns="http://www.w3.org/2000/svg" viewBox="0 0 42 24">
	<path fill="#AAAAAA" d="M3.5,9.8c0,1.8,0.4,2.7,1.4,2.7c1.1,0,1.5-0.9,1.5-2.8C6.4,7.8,6,7,5,7C3.9,7,3.5,7.8,3.5,9.8 M1.2,18 c0,1.2,1.2,1.9,3.4,1.9c2.4,0,3.6-0.7,3.6-1.8c0-0.7-0.6-1.1-1.6-1.2C4.8,16.8,3.2,17,2,16.7C1.5,17,1.2,17.5,1.2,18 M9.1,9.7 c0,1.7-1.4,2.9-4.1,3.2c-1.6,0.2-2.5,0.3-2.5,1.1c0,0.7,1.4,0.6,3.6,0.7c2.5,0.1,3.7,0.7,3.7,2.5c0,2-1.9,3.3-5.3,3.3 c-3,0-4.6-0.9-4.6-2.3c0-0.5,0.2-0.8,0.6-1.2c0.3-0.2,0.6-0.4,1-0.5c-0.6-0.4-0.9-0.9-0.9-1.6c0-1.4,1.1-2.1,3.2-2.3 c-2.1-0.4-3.1-1.4-3.1-2.9c0-1.7,1.6-3.1,4.1-3.2C5,4.7,6,3.6,7,3.6c0.7,0,1.1,0.5,1.1,1.1c0,0.7-0.5,1.2-1.1,1.2 c-0.4,0-0.7-0.2-1-0.2c-0.5,0-0.8,0.3-0.8,1C7.7,6.7,9.1,8,9.1,9.7 M12.7,11.4c0,3,0.7,4.4,2.3,4.4s2.3-1.5,2.3-4.4S16.5,7,15,7 C13.5,7,12.7,8.4,12.7,11.4 M20.1,11.4c0,2.8-2.1,4.9-5.1,4.9s-5.1-2-5.1-4.9c0-2.8,2.1-4.9,5.1-4.9S20.1,8.6,20.1,11.4 M23.8,11.4 c0,3,0.7,4.4,2.3,4.4c1.6,0,2.3-1.5,2.3-4.4S27.6,7,26.1,7C24.6,7,23.8,8.4,23.8,11.4 M31.2,11.4c0,2.8-2.1,4.9-5.1,4.9 s-5.1-2-5.1-4.9c0-2.8,2.1-4.9,5.1-4.9S31.2,8.6,31.2,11.4 M36.9,15.8c1.4,0,2.5-1.4,2.5-4.1c0-2.4-1.2-3.9-2.4-3.9 c-0.6,0-1.2,0.3-1.7,0.8v4.4C35.2,14.8,35.7,15.8,36.9,15.8 M35.2,18.1c0,0.8,0.1,1.3,0.7,1.5c0.4,0.1,0.7,0.1,0.7,0.4 c0,0.1-0.1,0.2-0.3,0.2h-4.8c-0.1,0-0.3-0.1-0.3-0.2c0,0,0,0,0,0c0-0.2,0.3-0.2,0.6-0.3c0.6-0.2,0.7-0.6,0.7-1.5V9.7 c0-0.9-0.2-1.2-0.8-1.5c-0.3-0.1-0.6-0.1-0.6-0.4c0-0.4,1.3-0.3,4-1.3V8c1.2-1,2.2-1.5,3.3-1.5c2,0,3.5,1.7,3.5,4.2 c0,3.2-2.2,5.5-5.3,5.5c-0.5,0-1-0.1-1.5-0.2L35.2,18.1L35.2,18.1z"/>
</svg>
