<svg xmlns="http://www.w3.org/2000/svg" viewBox="0 0 48 24">
	<path fill="#AAAAAA" d="M11.2,18.4v-7.2c0-1-0.7-1.6-1.9-1.6c-1.2,0-1.9,0.7-1.9,1.7v7.2H5.6v-7.2c0-1-0.6-1.6-1.8-1.6 c-1.2,0-1.9,0.7-1.9,1.7v7.2H0V8.2h1.7l0.1,1C2.3,8.4,3,7.9,4.4,7.9c1.1,0,2,0.6,2.5,1.4c0.6-0.8,1.5-1.4,3.1-1.4 c1.8,0,3.1,1.3,3.1,3.1v7.4H11.2L11.2,18.4z"/>
	<path fill="#AAAAAA" d="M22.9,12.3l-1.4,1.4h-4.8c0,1.5,1,3.3,3,3.3c1.1,0,2-0.3,2.7-1l-0.4,2c-0.6,0.4-1.4,0.6-2.6,0.6 c-2.6,0-4.7-2.1-4.7-5.3c0-3.4,2.2-5.4,4.4-5.4c2.4,0,3.8,2,3.8,3.9C22.9,11.9,22.9,12.2,22.9,12.3L22.9,12.3z M19.2,9.5 c-1.1,0-2.2,1.2-2.4,2.6H21c0-0.1,0-0.3,0-0.3C21.1,10.8,20.4,9.5,19.2,9.5L19.2,9.5z"/>
	<path fill="#AAAAAA" d="M30.2,9.7h-2.8v6c0,0.8,0.6,1.3,1.3,1.3c0.4,0,0.7-0.1,1-0.2l-0.3,1.7c-0.2,0.1-0.5,0.1-0.9,0.1 c-1.6,0-2.9-1-2.9-2.9V9.7h-1.7V8.2h1.7V6.2l1.8-1v2.9h3.1L30.2,9.7L30.2,9.7z"/>
	<path fill="#AAAAAA" d="M36.8,9.7c-1.5,0-3.1,1-3.1,3.5v5.2h-1.9V8.2h1.8l0.1,1.5c0.5-1.2,1.7-1.7,3-1.7L37,9.7 C37,9.7,36.9,9.7,36.8,9.7L36.8,9.7z"/>
	<path fill="#AAAAAA" d="M42.4,18.8c-3.1,0-5.6-2.5-5.6-5.6c0-3.1,2.5-5.6,5.6-5.6c3.1,0,5.6,2.5,5.6,5.6C48,16.3,45.5,18.8,42.4,18.8 L42.4,18.8z M44,8.6c0.3,0.4,0.5,0.9,0.8,1.4c0.3-0.1,0.6-0.3,0.9-0.5C45.1,9.2,44.6,8.8,44,8.6L44,8.6z M46,10 c-0.3,0.2-0.7,0.4-1.1,0.6c0.3,0.8,0.5,1.6,0.5,2.3h1.7C47.1,11.8,46.7,10.8,46,10L46,10z M43.1,8.5c-0.1,0-0.3-0.1-0.4-0.1v2.2 c0.5,0,1-0.2,1.4-0.3C43.9,9.6,43.5,9,43.1,8.5L43.1,8.5z M44.4,10.8c-0.6,0.2-1.1,0.4-1.6,0.4v1.6h2.1 C44.8,12.2,44.6,11.5,44.4,10.8L44.4,10.8z M42.1,8.4c-0.1,0-0.2,0-0.4,0.1C41.3,9,41,9.6,40.7,10.3c0.5,0.2,1,0.3,1.4,0.3V8.4 L42.1,8.4z M45.4,13.5c0,0.6-0.2,1.5-0.5,2.3c0.4,0.2,0.8,0.4,1.1,0.6c0.7-0.8,1.1-1.7,1.1-2.9H45.4L45.4,13.5z M39.2,9.6 c0.3,0.2,0.6,0.3,0.9,0.5c0.2-0.5,0.5-1,0.8-1.4C40.3,8.8,39.7,9.2,39.2,9.6L39.2,9.6z M42.7,13.5v1.6c0.5,0,1.1,0.2,1.6,0.4 c0.3-0.7,0.4-1.4,0.5-2H42.7L42.7,13.5z M42.1,11.2c-0.5,0-1.1-0.2-1.6-0.4c-0.3,0.7-0.4,1.4-0.5,2h2.1V11.2L42.1,11.2z M44.7,16.3 c-0.2,0.5-0.4,1-0.7,1.4c0.6-0.2,1.2-0.5,1.6-0.9C45.3,16.6,45,16.5,44.7,16.3L44.7,16.3z M38.8,10c-0.7,0.8-1.1,1.8-1.2,2.9h1.7 c0.1-0.7,0.2-1.5,0.5-2.3C39.5,10.4,39.1,10.2,38.8,10L38.8,10z M42.7,15.8V18c0.1,0,0.2,0,0.4,0c0.4-0.6,0.8-1.2,1.1-1.9 C43.7,15.9,43.2,15.8,42.7,15.8L42.7,15.8z M42.1,13.5H40c0,0.6,0.2,1.4,0.5,2c0.6-0.2,1.1-0.4,1.6-0.4V13.5L42.1,13.5z M42.1,15.8 c-0.5,0-0.9,0.2-1.4,0.3c0.3,0.7,0.6,1.3,1.1,1.9c0.1,0,0.3,0,0.4,0V15.8L42.1,15.8z M40.1,16.3c-0.3,0.2-0.6,0.3-0.9,0.5 c0.5,0.4,1,0.7,1.7,0.9C40.6,17.3,40.3,16.8,40.1,16.3L40.1,16.3z M39.4,13.5h-1.7c0.1,1.1,0.5,2.1,1.2,2.9 c0.3-0.2,0.7-0.4,1.1-0.6C39.6,14.9,39.4,14.1,39.4,13.5L39.4,13.5z"/>
</svg>
