<svg xmlns="http://www.w3.org/2000/svg" viewBox="0 0 116 112">
  <path fill="#FFF" d="M3 18v.01l.01-.01zM94 75h6v4h-6zM108 75h6v4h-6zM103 82h4v7h-4zM103 67h4v7h-4zM27 91h4v7h-4zM27 105h4v7h-4zM18 99h5v4h-5zM34 99h5v4h-5zM.818 69.147l2.828-2.829 3.536 3.535-2.828 2.829zM10.818 79.146l2.828-2.828 3.536 3.536-2.828 2.828zM.318 80.353l3.536-3.535 2.828 2.829-3.536 3.535zM10.318 70.354l3.536-3.536 2.828 2.828-3.536 3.536z"/>
  <path fill="#FFF" d="M116 17.044a2.306 2.306 0 0 0-.498-.97 2.266 2.266 0 0 0-.859-.556l-1.12-.427a58.586 58.586 0 0 1-5.264-2.38l-3.733-1.848-1.506-.75c-1.12-.582-2.265-1.151-3.422-1.733l-.286-.143a311.272 311.272 0 0 0-5.314-2.586l-1.83-.84C84.776 1.513 79.114 0 74.348 0a18.89 18.89 0 0 0-9.234 2.586 12.608 12.608 0 0 1-4.331 1.552 7.822 7.822 0 0 1-1.556 0 12.633 12.633 0 0 1-4.318-1.552A18.89 18.89 0 0 0 45.675 0c-4.766 0-10.416 1.513-17.796 4.772a158.596 158.596 0 0 0-3.733 1.694 377.908 377.908 0 0 0-7.131 3.556c-3.174 1.616-6.285 3.207-9.01 4.384-.934.414-1.817.763-2.601 1.047a2.198 2.198 0 0 0-.485.259 2.286 2.286 0 0 0-.909 1.293c-.013.15-.013.302 0 .453a2.687 2.687 0 0 0 0 .44l.075.543c2.588 15.181 11.772 29.47 25.25 39.493l.224.168v2.586C29.539 77.402 42.557 90.971 58.642 91c17.555-.007 31.788-14.786 31.809-33.027v.129l.224-.168c13.49-10.022 22.724-24.312 25.213-39.468l.075-.517a2.687 2.687 0 0 0 0-.44c.026-.153.038-.31.037-.465zm-103.876.414c2.203-1.035 6.795-3.363 6.795-3.363 8.313-4.215 17.671-8.922 25.263-9.53h1.493c2.569.022 5.09.72 7.33 2.03A14.82 14.82 0 0 0 60.01 8.69c2.46-.1 4.86-.82 6.994-2.095a14.784 14.784 0 0 1 7.343-2.082c7.827 0 17.883 5.082 26.743 9.582 2.302 1.164 4.667 2.367 6.87 3.389l1.145.543-1.17.491c-4.891 2.03-16.178 5.173-38.579 5.173-2.829 0-5.828-.052-8.997-.155h-.498c-28.411.944-42.05-2.768-47.65-5.07l-1.245-.478 1.157-.53zm17.547 14.794a4.292 4.292 0 0 0-.112.97v19.151l-.871-.75c-8.73-7.23-15.283-16.91-18.879-27.893L9.3 22.06l1.344 1.06c5.55 4.212 11.922 7.104 18.667 8.471l.523.116-.162.544zm56.437 25.72c-.048 15.692-12.278 28.4-27.379 28.45-13.659.015-24.758-11.45-24.827-25.643V33.234l.087-.142c.09-.125.19-.242.299-.35.11-.11.226-.213.348-.31l.274-.206.423-.259.374-.194.51-.233.473-.194.56-.22.585-.18.61-.182.696-.194.635-.142.821-.168.635-.116.946-.143.572-.077 1.108-.117h.635l1.145-.064h2.476l1.245.064h.61l1.356.143.61.09 1.369.233.398.078h.211c.473.09.934.194 1.394.323l.386.103h.224c.473.13.933.272 1.394.427l.373.116.112.453V56.81h.523c1.352 0 2.677.399 3.82 1.15V31.502l.374-.129c.597-.18 1.17-.323 1.742-.465l.373-.09c.548-.13 1.095-.234 1.643-.337l.423-.078 1.58-.232h.461l1.493-.143h6.086l.908.09.772.091.759.104h.311l.498.077.597.117.286.064.548.117.498.116h.174l.622.233.349.116h.124l.647.207.274.117.672.284.2.104.56.31.149.116c.15.098.292.21.423.337.128.132.24.28.336.44v.129l.087 24.777zm24.18-34.488c-3.574 11.086-10.161 20.86-18.966 28.14l-.871.75V33.22a4.72 4.72 0 0 0-.15-1.15l-.124-.544.535-.129c8.052-1.914 14.349-4.772 18.667-8.509l1.394-1.19-.485 1.785z"/>
  <path fill="#FFF" d="M58.5 53C52.149 53 47 58.373 47 65s5.149 12 11.5 12S70 71.627 70 65c-.007-6.624-5.152-11.993-11.5-12zm-7.143 12c-.005-3.031 1.741-5.767 4.424-6.93 2.682-1.165 5.773-.527 7.829 1.615s2.672 5.365 1.562 8.166c-1.111 2.801-3.73 4.628-6.635 4.628-3.96 0-7.173-3.346-7.18-7.479z"/>
</svg>
