<svg xmlns="http://www.w3.org/2000/svg" viewBox="0 0 89 104">
  <path fill="#FFFFFF" d="M12.4636938,71.4118498 L12.8629135,71.8269854 C14.9489156,73.6931065 16.5889922,76.0381178 17.6535498,78.676724 C20.1486729,84.5924073 19.6496483,92.0648494 16.3560858,100.575131 L16.056671,101.301618 C15.8170244,101.919628 15.8920198,102.621495 16.2562809,103.169729 C16.6420225,103.68135 17.2281096,103.986077 17.8531597,104 L59.6714224,104 C60.7187164,104 61.5677159,103.117153 61.5677159,102.028106 L61.5677159,96.3199901 C61.6186389,95.0242372 62.6171545,93.9859132 63.8632292,93.93296 L75.4406002,93.7253921 C76.8508972,93.7509521 78.2106719,93.1796433 79.2080539,92.1424979 C80.2054359,91.1053526 80.7548412,89.6913668 80.7302611,88.2248445 L80.7302611,67.364277 L84.7224581,67.364277 C86.1801266,67.3468283 87.5310994,66.5663655 88.3154353,65.2885986 C89.10665,64.0161651 89.2195206,62.4121015 88.6148501,61.033458 L81.3290907,45.0507346 C80.818138,43.9125369 80.5459636,42.674301 80.5306513,41.4182975 L80.5306513,40.2766744 C80.8984754,37.0337072 80.8649336,33.7550822 80.4308464,30.5209861 L80.1314316,28.6528756 L80.1314316,28.4453077 L79.7322119,26.888549 C79.1321634,24.3253511 78.2269279,21.8500147 77.037479,19.5198908 C71.7478181,9.24528292 62.1665455,2.60311217 49.1919055,0.527433813 C31.726044,-2.27473197 9.36974121,6.02798146 2.48320152,26.888549 C2.21028479,27.5192985 2.00930742,28.1810998 1.88437198,28.8604434 C1.78456706,29.379363 1.48515229,30.62477 1.48515229,30.62477 C-2.4072397,45.881006 1.38534737,59.4766992 12.4636938,71.4118498 Z M5.07812952,31.4550414 L5.47734921,29.7944987 C5.57715414,29.379363 5.97637383,28.0301721 5.97637383,28.0301721 C12.1642791,9.24528292 32.5244833,1.77284083 48.493271,4.36743878 C60.2702519,6.2355493 68.8534753,12.1512326 73.5443067,21.2842174 C74.5482975,23.3761365 75.3506501,25.5662806 75.9396248,27.8226042 L76.3388445,29.2755791 L76.6382593,31.0399057 C77.0234964,33.8603862 77.0570418,36.7207761 76.7380642,39.550187 C76.6552048,40.0643775 76.6217717,40.585868 76.6382593,41.1069457 C76.6313255,42.9446989 77.0416722,44.7582009 77.8359184,46.3999255 L85.1216777,62.3826489 C85.2225928,62.5397063 85.2225928,62.7445111 85.1216777,62.9015685 C85.0254734,63.0297678 84.878808,63.106024 84.7224581,63.1091363 L79.8419973,63.1091363 C78.2274776,63.1651301 76.9467569,64.5428337 76.9476546,66.2226539 L76.9476546,87.9134927 C76.9558947,88.3289384 76.8008152,88.7299041 76.5182534,89.0237311 C76.2356916,89.317558 75.8500985,89.4788201 75.4505807,89.4702515 L63.7734047,89.6778193 C60.4179243,89.7515966 57.7460337,92.6226231 57.7851093,96.1124222 L57.7851093,99.8486433 L20.6476975,99.8486433 C23.6418452,91.1307942 23.841455,83.4507842 21.1467221,76.9123974 C19.8590365,73.8010377 17.9545318,71.0072127 15.5576464,68.7134679 L15.2582317,68.4021161 C5.07812952,57.8161565 1.68476214,45.3620864 5.07812952,31.4550414 Z"/>
  <path fill="#FFFFFF" d="M9,38.0989899 C9,40.9998795 11.2572611,43.3515152 14.0417338,43.3515152 C14.3477211,43.3685971 14.654321,43.3331061 14.9492459,43.2464646 L19.285137,51.9656566 C18.3245814,52.9709456 17.7814176,54.3290411 17.7726169,55.7474747 C17.7726169,58.6483643 20.029878,61 22.8143507,61 C25.5988234,61 27.8560846,58.6483643 27.8560846,55.7474747 C27.8377229,54.8239612 27.5948735,53.9203799 27.1502418,53.1212121 L38.947899,40.3050505 C39.6554948,40.7209274 40.4546712,40.9381246 41.2670966,40.9353535 C44.0515693,40.9353535 46.3088304,38.5837179 46.3088304,35.6828283 L46.3088304,35.4727273 L59.8307606,30.640404 C61.0164744,32.4011779 63.1127922,33.2308973 65.1216178,32.7345174 C67.1304434,32.2381374 68.6457885,30.5159777 68.9461691,28.3879905 C69.2465497,26.2600034 68.2712581,24.15626 66.4846488,23.078392 C64.6980396,22.0005239 62.4611906,22.1663707 60.8391074,23.4969697 L50.049797,15.8282828 C50.246995,15.3281954 50.3497076,14.7931609 50.352301,14.2525253 C50.352301,11.3516357 48.0950399,9 45.3105671,9 C42.5260944,9 40.2688333,11.3516357 40.2688333,14.2525253 L40.2688333,14.4626263 L29.4795229,18.2444444 C28.3987801,16.7432072 26.6313733,15.9566822 24.8430676,16.1811458 C23.0547619,16.4056093 21.5172434,17.6069601 20.8096805,19.3326609 C20.1021176,21.0583617 20.3320059,23.0462375 21.4127487,24.5474747 L15.6651721,33.1616162 C15.1851539,32.9561734 14.6715912,32.8491665 14.152652,32.8464646 C11.3773193,32.9152195 9.12636585,35.2098029 9,38.0989899 Z M19.1593542,36.9402985 C18.9502517,36.4324245 18.6782189,35.957274 18.3506494,35.5277612 L24.1126711,26.6179104 C24.5938958,26.8304057 25.1087492,26.941086 25.6289926,26.9438806 C26.5974751,26.9411828 27.5448466,26.6394634 28.3583714,26.0746269 L37.0519481,34.2238806 C36.857286,34.5568851 36.7202947,34.9250054 36.6475956,35.3104478 L19.1593542,36.9402985 Z M41.4373301,17.5373134 C41.9558694,18.1766854 42.5820136,18.7144603 43.2857143,19.1248304 L41.1292661,30.7666214 C40.3229137,30.7854462 39.538777,31.0425891 38.8701299,31.5074627 L30.038961,23.5698779 C30.3543124,22.8724936 30.5289878,22.1163773 30.5524011,21.3473541 L30.5524011,21.1356852 L41.4373301,17.5373134 Z M45.8864901,32.2835821 C45.3754774,31.6630152 44.7584216,31.1410572 44.0649351,30.7427568 L46.1900826,19.4433714 C47.1603166,19.3486651 48.078623,18.9542993 48.8212177,18.3134328 L59.6493506,25.8121159 C59.451443,26.3011171 59.3483609,26.8242906 59.3457581,27.3529412 L59.3457581,27.5583845 L45.8864901,32.2835821 Z M17.5714286,41.9098693 C18.2981011,41.1840498 18.7946336,40.2588386 18.9985729,39.2506074 L36.7461314,37.7164179 L37.0519481,38.3300937 L25.1250994,50.9104478 C24.409755,50.5055416 23.6018272,50.294074 22.7805052,50.296772 C22.4711673,50.2801406 22.1612098,50.3146954 21.8630553,50.3990513 L17.5714286,41.9098693 Z"/>
</svg>
