<svg xmlns="http://www.w3.org/2000/svg" viewBox="0 0 155 155">
  <path fill="#FFFFFF" d="M77.5,155A77.5,77.5,0,1,1,155,77.5,77.59,77.59,0,0,1,77.5,155Zm0-149.18A71.68,71.68,0,1,0,149.18,77.5,71.77,71.77,0,0,0,77.5,5.82Z"/>
  <path fill="#FFFFFF" d="M77.5,139.66A62.16,62.16,0,1,1,139.66,77.5,62.24,62.24,0,0,1,77.5,139.66Zm0-118.5A56.34,56.34,0,1,0,133.84,77.5,56.4,56.4,0,0,0,77.5,21.16Z"/>
  <path fill="#FFFFFF" d="M74.62,125.11a2.89,2.89,0,0,1,2.9-2.91h0a2.92,2.92,0,0,1,2.92,2.91h0A2.92,2.92,0,0,1,77.53,128h0A2.91,2.91,0,0,1,74.62,125.11Zm-12.7.46A2.92,2.92,0,0,1,60,121.9h0A2.93,2.93,0,0,1,63.71,120h0a2.92,2.92,0,0,1,1.87,3.67h0a2.91,2.91,0,0,1-2.77,2h0A2.72,2.72,0,0,1,61.92,125.57Zm27.55-1.88A2.91,2.91,0,0,1,91.33,120h0A2.91,2.91,0,0,1,95,121.89h0a2.92,2.92,0,0,1-1.87,3.67h0a3.13,3.13,0,0,1-.9.14h0A2.9,2.9,0,0,1,89.47,123.69Zm-41.64-5.3a2.9,2.9,0,0,1-.64-4.06h0a2.91,2.91,0,0,1,4.06-.65h0a2.92,2.92,0,0,1,.65,4.07h0a2.94,2.94,0,0,1-2.36,1.2h0A2.87,2.87,0,0,1,47.83,118.39Zm55.32-.66a2.91,2.91,0,0,1,.63-4.07h0a2.92,2.92,0,0,1,4.07.64h0a2.92,2.92,0,0,1-.64,4.07h0a3,3,0,0,1-1.71.55h0A2.88,2.88,0,0,1,103.15,117.73Zm-66.5-10.5h0a2.91,2.91,0,0,1,.63-4.06h0a2.92,2.92,0,0,1,4.07.63h0a2.9,2.9,0,0,1-.64,4.06h0a2.81,2.81,0,0,1-1.71.57h0A2.91,2.91,0,0,1,36.65,107.23Zm77.66.6a2.91,2.91,0,0,1-.64-4.06h0a2.92,2.92,0,0,1,4.07-.65h0a2.92,2.92,0,0,1,.64,4.07h0a2.9,2.9,0,0,1-2.36,1.2h0A2.89,2.89,0,0,1,114.31,107.83ZM29.46,93.16a2.91,2.91,0,0,1,1.86-3.67h0A2.91,2.91,0,0,1,35,91.35h0A2.91,2.91,0,0,1,33.12,95h0a2.83,2.83,0,0,1-.9.15h0A2.89,2.89,0,0,1,29.46,93.16ZM121.89,95A2.91,2.91,0,0,1,120,91.31h0a2.89,2.89,0,0,1,3.66-1.86h0a2.9,2.9,0,0,1,1.87,3.66h0a2.91,2.91,0,0,1-2.77,2h0A2.9,2.9,0,0,1,121.89,95ZM27,77.55a2.9,2.9,0,0,1,2.9-2.91h0a2.92,2.92,0,0,1,2.92,2.91h0a2.91,2.91,0,0,1-2.91,2.91h0A2.91,2.91,0,0,1,27,77.55Zm95.22,0h0V77.4h0a2.91,2.91,0,0,1,2.91-2.91h0a2.91,2.91,0,0,1,2.91,2.9h0v.06h0v0h0a2.91,2.91,0,0,1-2.91,2.91h0A2.91,2.91,0,0,1,122.2,77.5ZM31.3,65.6a2.91,2.91,0,0,1-1.88-3.66h0a2.92,2.92,0,0,1,3.66-1.88h0A2.92,2.92,0,0,1,35,63.73h0a2.92,2.92,0,0,1-2.77,2h0A2.73,2.73,0,0,1,31.3,65.6Zm88.7-2h0a2.91,2.91,0,0,1,1.86-3.67h0a2.91,2.91,0,0,1,3.67,1.86h0a2.91,2.91,0,0,1-1.86,3.67h0a2.89,2.89,0,0,1-.91.15h0A2.92,2.92,0,0,1,120,63.6ZM37.24,51.91a2.9,2.9,0,0,1-.65-4.06h0a2.91,2.91,0,0,1,4.06-.65h0a2.91,2.91,0,0,1,.65,4.07h0a2.92,2.92,0,0,1-2.36,1.2h0A2.84,2.84,0,0,1,37.24,51.91Zm76.38-.75a2.91,2.91,0,0,1,.63-4.07h0a2.92,2.92,0,0,1,4.07.64h0a2.9,2.9,0,0,1-.64,4.06h0a2.87,2.87,0,0,1-1.71.56h0A2.91,2.91,0,0,1,113.62,51.16ZM47.11,40.73a2.91,2.91,0,0,1,.64-4.06h0a2.9,2.9,0,0,1,4.06.63h0a2.9,2.9,0,0,1-.63,4.06h0a2.89,2.89,0,0,1-1.71.56h0A2.91,2.91,0,0,1,47.11,40.73Zm56.6.55h0a2.9,2.9,0,0,1-.64-4.06h0a2.9,2.9,0,0,1,4.06-.64h0a2.9,2.9,0,0,1,.64,4.06h0a2.91,2.91,0,0,1-2.35,1.2h0A2.87,2.87,0,0,1,103.71,41.28ZM60,33.13a2.92,2.92,0,0,1,1.86-3.67h0a2.92,2.92,0,0,1,3.68,1.87h0A2.91,2.91,0,0,1,63.62,35h0a2.83,2.83,0,0,1-.9.15h0A2.91,2.91,0,0,1,60,33.13ZM91.25,35h0a2.92,2.92,0,0,1-1.88-3.66h0A2.92,2.92,0,0,1,93,29.41h0a2.91,2.91,0,0,1,1.87,3.66h0a2.91,2.91,0,0,1-2.77,2h0A2.8,2.8,0,0,1,91.25,35ZM74.52,29.89A2.9,2.9,0,0,1,77.42,27h0a2.92,2.92,0,0,1,2.92,2.9h0a2.91,2.91,0,0,1-2.91,2.92h0A2.91,2.91,0,0,1,74.52,29.89Z"/>
  <path fill="#FFFFFF" d="M74.16,49,68,75.44a8.55,8.55,0,0,0,2,7.65h0a8.53,8.53,0,0,0,12.42.23l.12-.13a8.54,8.54,0,0,0,2.18-8L78.17,48.91A2.06,2.06,0,0,0,74.16,49Z"/>
</svg>
